<svg width="32" height="32" viewBox="0 0 32 32" fill="none" xmlns="http://www.w3.org/2000/svg">
<rect width="32" height="32" rx="5" fill="#FAFAFA"/>
<path d="M5 26H0V5.5H5V26Z" fill="#FF4A59"/>
<path d="M15 5.5H10V26H15V5.5Z" fill="#FF4A59"/>
<path d="M17 26V5.5H22V26H17Z" fill="#FF4A59"/>
<path d="M27 26V5.5H32V26H27Z" fill="#FF4A59"/>
<path d="M11 27H4L4.96875 26.0312L5 5.5H10V26L11 27Z" fill="#802F36"/>
<path d="M14 27L15 26.0312V5.5H17V26L18 27H14Z" fill="#802F36"/>
<path d="M21 27L22 26V5.5H27V26.0312L28 27H21Z" fill="#802F36"/>
<path d="M5 26L4 27V26H5Z" fill="black"/>
<path d="M11 26H10L11 27V26Z" fill="black"/>
<path d="M14 26V27L15 26H14Z" fill="black"/>
<path d="M17 26L18 27V26H17Z" fill="black"/>
<path d="M21 26V27L22 26H21Z" fill="black"/>
<path d="M28 26H27L28 27V26Z" fill="black"/>
<path d="M2.5 8.00012L0 5.50012V5.00012C0 2.00012 2 0.00012207 5 0.00012207H27C30 0.00012207 32 2 32 5.00012V5.50012L29.5 8.00012L27 5.50012L24.5 8.00012L22 5.50012L19.5 8.00012L17 5.50012L16 8.00012L15 5.50012L12.5 8.00012L10 5.50012L7.5 8.00012L5 5.50012L2.5 8.00012Z" fill="#141414"/>
<path d="M5.74 23.105C4.97 23.105 4.28 22.98 3.67 22.73C3.06 22.48 2.57 22.11 2.2 21.62C1.84 21.13 1.65 20.54 1.63 19.85H4.36C4.4 20.24 4.535 20.54 4.765 20.75C4.995 20.95 5.295 21.05 5.665 21.05C6.045 21.05 6.345 20.965 6.565 20.795C6.785 20.615 6.895 20.37 6.895 20.06C6.895 19.8 6.805 19.585 6.625 19.415C6.455 19.245 6.24 19.105 5.98 18.995C5.73 18.885 5.37 18.76 4.9 18.62C4.22 18.41 3.665 18.2 3.235 17.99C2.805 17.78 2.435 17.47 2.125 17.06C1.815 16.65 1.66 16.115 1.66 15.455C1.66 14.475 2.015 13.71 2.725 13.16C3.435 12.6 4.36 12.32 5.5 12.32C6.66 12.32 7.595 12.6 8.305 13.16C9.015 13.71 9.395 14.48 9.445 15.47H6.67C6.65 15.13 6.525 14.865 6.295 14.675C6.065 14.475 5.77 14.375 5.41 14.375C5.1 14.375 4.85 14.46 4.66 14.63C4.47 14.79 4.375 15.025 4.375 15.335C4.375 15.675 4.535 15.94 4.855 16.13C5.175 16.32 5.675 16.525 6.355 16.745C7.035 16.975 7.585 17.195 8.005 17.405C8.435 17.615 8.805 17.92 9.115 18.32C9.425 18.72 9.58 19.235 9.58 19.865C9.58 20.465 9.425 21.01 9.115 21.5C8.815 21.99 8.375 22.38 7.795 22.67C7.215 22.96 6.53 23.105 5.74 23.105ZM10.6485 18.8C10.6485 17.94 10.8085 17.185 11.1285 16.535C11.4585 15.885 11.9035 15.385 12.4635 15.035C13.0235 14.685 13.6485 14.51 14.3385 14.51C14.8885 14.51 15.3885 14.625 15.8385 14.855C16.2985 15.085 16.6585 15.395 16.9185 15.785V11.9H19.4835V23H16.9185V21.8C16.6785 22.2 16.3335 22.52 15.8835 22.76C15.4435 23 14.9285 23.12 14.3385 23.12C13.6485 23.12 13.0235 22.945 12.4635 22.595C11.9035 22.235 11.4585 21.73 11.1285 21.08C10.8085 20.42 10.6485 19.66 10.6485 18.8ZM16.9185 18.815C16.9185 18.175 16.7385 17.67 16.3785 17.3C16.0285 16.93 15.5985 16.745 15.0885 16.745C14.5785 16.745 14.1435 16.93 13.7835 17.3C13.4335 17.66 13.2585 18.16 13.2585 18.8C13.2585 19.44 13.4335 19.95 13.7835 20.33C14.1435 20.7 14.5785 20.885 15.0885 20.885C15.5985 20.885 16.0285 20.7 16.3785 20.33C16.7385 19.96 16.9185 19.455 16.9185 18.815ZM30.7592 23H28.1942L23.9042 16.505V23H21.3392V12.47H23.9042L28.1942 18.995V12.47H30.7592V23Z" fill="black"/>
</svg>
